<mxfile host="app.diagrams.net" modified="2023-07-26T14:46:47.489Z" agent="Mozilla/5.0 (Windows NT 10.0; Win64; x64) AppleWebKit/537.36 (KHTML, like Gecko) Chrome/115.0.0.0 Safari/537.36" etag="fCnXFauvsljYqZDXS5Tc" version="21.6.5" type="device">
  <diagram name="Página-1" id="V20cHk1rlWaq8SelJViR">
    <mxGraphModel dx="874" dy="478" grid="1" gridSize="10" guides="1" tooltips="1" connect="1" arrows="1" fold="1" page="1" pageScale="1" pageWidth="827" pageHeight="1169" math="0" shadow="0">
      <root>
        <mxCell id="0" />
        <mxCell id="1" parent="0" />
        <mxCell id="qgkxdRaN1x4EN75sdfEh-1" value="Você deverá criar a modelagem para o catálogo de filmes, observando a seguinte situação:&#xa;&#xa;&#xa;- um filme possui apenas um único gênero.&#xa;- um gênero pode definir mais de um filme." style="text;whiteSpace=wrap;" parent="1" vertex="1">
          <mxGeometry x="120" y="20" width="520" height="100" as="geometry" />
        </mxCell>
        <mxCell id="E0GS7mV2OciLkvAMQ9gW-7" style="edgeStyle=orthogonalEdgeStyle;rounded=0;orthogonalLoop=1;jettySize=auto;html=1;entryX=0;entryY=0.5;entryDx=0;entryDy=0;endArrow=none;endFill=0;" parent="1" source="E0GS7mV2OciLkvAMQ9gW-1" target="E0GS7mV2OciLkvAMQ9gW-4" edge="1">
          <mxGeometry relative="1" as="geometry" />
        </mxCell>
        <mxCell id="E0GS7mV2OciLkvAMQ9gW-8" style="edgeStyle=orthogonalEdgeStyle;rounded=0;orthogonalLoop=1;jettySize=auto;html=1;entryX=0;entryY=0.5;entryDx=0;entryDy=0;endArrow=none;endFill=0;" parent="1" source="E0GS7mV2OciLkvAMQ9gW-1" target="E0GS7mV2OciLkvAMQ9gW-5" edge="1">
          <mxGeometry relative="1" as="geometry" />
        </mxCell>
        <mxCell id="E0GS7mV2OciLkvAMQ9gW-9" style="edgeStyle=orthogonalEdgeStyle;rounded=0;orthogonalLoop=1;jettySize=auto;html=1;entryX=0;entryY=0.5;entryDx=0;entryDy=0;endArrow=none;endFill=0;" parent="1" source="E0GS7mV2OciLkvAMQ9gW-1" target="E0GS7mV2OciLkvAMQ9gW-6" edge="1">
          <mxGeometry relative="1" as="geometry" />
        </mxCell>
        <mxCell id="E0GS7mV2OciLkvAMQ9gW-10" style="edgeStyle=orthogonalEdgeStyle;rounded=0;orthogonalLoop=1;jettySize=auto;html=1;entryX=0.5;entryY=0;entryDx=0;entryDy=0;endArrow=none;endFill=0;" parent="1" source="E0GS7mV2OciLkvAMQ9gW-1" target="E0GS7mV2OciLkvAMQ9gW-2" edge="1">
          <mxGeometry relative="1" as="geometry" />
        </mxCell>
        <mxCell id="E0GS7mV2OciLkvAMQ9gW-1" value="Filme" style="rounded=0;whiteSpace=wrap;html=1;" parent="1" vertex="1">
          <mxGeometry x="210" y="160" width="120" height="60" as="geometry" />
        </mxCell>
        <mxCell id="E0GS7mV2OciLkvAMQ9gW-11" style="edgeStyle=orthogonalEdgeStyle;rounded=0;orthogonalLoop=1;jettySize=auto;html=1;entryX=0.5;entryY=0;entryDx=0;entryDy=0;endArrow=none;endFill=0;" parent="1" source="E0GS7mV2OciLkvAMQ9gW-2" target="E0GS7mV2OciLkvAMQ9gW-3" edge="1">
          <mxGeometry relative="1" as="geometry" />
        </mxCell>
        <mxCell id="E0GS7mV2OciLkvAMQ9gW-2" value="possui" style="rhombus;whiteSpace=wrap;html=1;" parent="1" vertex="1">
          <mxGeometry x="230" y="280" width="80" height="80" as="geometry" />
        </mxCell>
        <mxCell id="E0GS7mV2OciLkvAMQ9gW-3" value="Gênero" style="rounded=0;whiteSpace=wrap;html=1;" parent="1" vertex="1">
          <mxGeometry x="210" y="410" width="120" height="60" as="geometry" />
        </mxCell>
        <mxCell id="E0GS7mV2OciLkvAMQ9gW-4" value="Vingadores" style="ellipse;whiteSpace=wrap;html=1;" parent="1" vertex="1">
          <mxGeometry x="414" y="130" width="66" height="40" as="geometry" />
        </mxCell>
        <mxCell id="E0GS7mV2OciLkvAMQ9gW-5" value="John Wick" style="ellipse;whiteSpace=wrap;html=1;" parent="1" vertex="1">
          <mxGeometry x="414" y="180" width="66" height="40" as="geometry" />
        </mxCell>
        <mxCell id="E0GS7mV2OciLkvAMQ9gW-6" value="Constatntine" style="ellipse;whiteSpace=wrap;html=1;" parent="1" vertex="1">
          <mxGeometry x="414" y="230" width="66" height="40" as="geometry" />
        </mxCell>
        <mxCell id="E0GS7mV2OciLkvAMQ9gW-12" value="N" style="text;html=1;strokeColor=none;fillColor=none;align=center;verticalAlign=middle;whiteSpace=wrap;rounded=0;" parent="1" vertex="1">
          <mxGeometry x="270" y="220" width="40" height="30" as="geometry" />
        </mxCell>
        <mxCell id="E0GS7mV2OciLkvAMQ9gW-13" value="1" style="text;html=1;strokeColor=none;fillColor=none;align=center;verticalAlign=middle;whiteSpace=wrap;rounded=0;" parent="1" vertex="1">
          <mxGeometry x="270" y="380" width="40" height="30" as="geometry" />
        </mxCell>
        <mxCell id="E0GS7mV2OciLkvAMQ9gW-15" value="" style="edgeStyle=orthogonalEdgeStyle;rounded=0;orthogonalLoop=1;jettySize=auto;html=1;entryX=1;entryY=0.25;entryDx=0;entryDy=0;endArrow=none;endFill=0;" parent="1" source="E0GS7mV2OciLkvAMQ9gW-14" target="E0GS7mV2OciLkvAMQ9gW-3" edge="1">
          <mxGeometry relative="1" as="geometry" />
        </mxCell>
        <mxCell id="E0GS7mV2OciLkvAMQ9gW-14" value="Ação" style="ellipse;whiteSpace=wrap;html=1;" parent="1" vertex="1">
          <mxGeometry x="390" y="420" width="70" height="40" as="geometry" />
        </mxCell>
      </root>
    </mxGraphModel>
  </diagram>
</mxfile>
